<svg xmlns="http://www.w3.org/2000/svg" viewBox="0 0 303.44 185.06"><title>Asset 1</title><g id="Layer_2" data-name="Layer 2"><g id="Layer_1-2" data-name="Layer 1"><polygon points="284.03 84.51 268.03 100.51 215.85 100.51 215.85 84.51 284.03 84.51" fill="#005073"/><polygon points="264.63 103.91 248.63 119.91 215.85 119.91 215.85 103.91 264.63 103.91" fill="#005073"/><polygon points="303.44 65.1 287.44 81.1 215.85 81.1 215.85 65.1 303.44 65.1" fill="#005073"/><polygon points="19.41 84.51 35.41 100.51 87.59 100.51 87.59 84.51 19.41 84.51" fill="#005073"/><polygon points="38.81 103.91 54.81 119.91 87.59 119.91 87.59 103.91 38.81 103.91" fill="#005073"/><polygon points="0 65.1 16 81.1 87.59 81.1 87.59 65.1 0 65.1" fill="#005073"/><polyline points="223.85 61.7 223.85 50.88 151.72 9.24 79.58 50.88 79.58 61.7" fill="none" stroke="#011f4b" stroke-miterlimit="10" stroke-width="16"/><polyline points="79.58 123.33 79.58 134.18 151.72 175.82 223.85 134.18 223.85 123.32" fill="none" stroke="#011f4b" stroke-miterlimit="10" stroke-width="16"/><text transform="translate(116.85 128.01)" font-size="103.65" fill="#011f4b" font-family="EvilEmpire, Evil Empire">cT</text></g></g></svg>